<?xml version="1.0" encoding="utf-8"?>
<svg id="Layer_1" style="enable-background:new 0 0 512.001 512.001;" x="0px" y="0px" viewBox="0 0 512.001 512.001" xmlns="http://www.w3.org/2000/svg">
  <path d="M0.001,256.006c0,141.395,114.606,255.998,255.996,255.994&#10;&#9;c141.398,0.004,256.004-114.598,256.004-255.994C512.009,114.61,397.395,0,255.996,0C114.606,0,0.001,114.614,0.001,256.006z" style="fill: rgb(79, 191, 232);"/>
  <path d="M 418.373 293.169 C 418.145 293.382 206.178 505.549 205.536 506.006 C 205.081 506.647 204.544 507.181 203.903 507.638 C 202.622 509.434 200.624 510.682 198.248 510.682 L 14.428 510.682 C 10.521 510.682 7.358 507.516 7.358 503.612 L 7.358 206.675 C 7.358 204.298 8.607 202.298 10.404 201.016 C 10.861 200.375 102.792 108.444 103.432 107.988 C 103.458 107.953 103.497 107.933 103.522 107.898 C 124.716 102.218 146.975 99.142 169.963 99.142 C 289.986 99.142 390.663 181.727 418.373 293.169 Z" style="fill: rgb(61, 173, 217);" transform="matrix(-1, 0, 0, -1, 425.730969, 609.823976)"/>
  <g>
    <path style="fill:#F4F6F9;" d="M 411.301 169.843 C 407.392 169.843 404.23 166.677 404.23 162.773 L 404.23 113.284 L 234.552 113.284 L 234.552 396.08 L 404.23 396.08 L 404.23 346.591 C 404.23 342.687 407.393 339.521 411.301 339.521 C 415.208 339.521 418.371 342.687 418.371 346.591 L 418.371 403.15 C 418.371 407.054 415.208 410.22 411.301 410.22 L 227.482 410.22 C 223.574 410.22 220.412 407.054 220.412 403.15 L 220.412 106.212 C 220.412 102.308 223.575 99.142 227.482 99.142 L 411.301 99.142 C 415.209 99.142 418.371 102.308 418.371 106.212 L 418.371 162.772 C 418.371 166.678 415.208 169.843 411.301 169.843 Z" transform="matrix(-1, 0, 0, -1, 638.782989, 509.362021)"/>
    <path style="fill:#F4F6F9;" d="M 338.53 259.675 L 267.831 330.376 C 265.069 333.137 260.596 333.137 257.834 330.376 C 255.072 327.614 255.072 323.141 257.834 320.379 L 316.464 261.749 L 100.224 261.749 C 96.317 261.749 93.154 258.583 93.154 254.679 C 93.154 250.775 96.318 247.609 100.224 247.609 L 316.464 247.609 L 257.834 188.978 C 255.072 186.217 255.072 181.744 257.834 178.982 C 259.215 177.601 261.023 176.911 262.832 176.911 C 264.641 176.911 266.45 177.601 267.83 178.982 L 338.53 249.682 C 341.293 252.441 341.293 256.915 338.53 259.675 Z" transform="matrix(-1, 0, 0, -1, 433.756212, 509.357704)"/>
  </g>
  <g/>
  <g/>
  <g/>
  <g/>
  <g/>
  <g/>
  <g/>
  <g/>
  <g/>
  <g/>
  <g/>
  <g/>
  <g/>
  <g/>
  <g/>
</svg>