<?xml version="1.0" encoding="iso-8859-1"?>
<!-- Generator: Adobe Illustrator 19.0.0, SVG Export Plug-In . SVG Version: 6.00 Build 0)  -->
<svg version="1.1" id="Layer_1" xmlns="http://www.w3.org/2000/svg" xmlns:xlink="http://www.w3.org/1999/xlink" x="0px" y="0px"
	 viewBox="0 0 512 512" style="enable-background:new 0 0 512 512;" xml:space="preserve">
<path style="fill:#4FC0E8;" d="M512,256.006C512,397.402,397.394,512.004,256.004,512C114.606,512.004,0,397.402,0,256.006
	C-0.007,114.61,114.606,0,256.004,0C397.394,0,512,114.614,512,256.006z"/>
<path style="fill:#3DAED9;" d="M512,256.005c0-19.62-2.281-38.695-6.46-57.05c-0.39-0.513-110.617-111.092-111.739-111.723
	c-2.229-1.25-4.954-1.216-7.132,0.11L118.013,249.952c-2.116,1.278-3.411,3.577-3.411,6.048c0,2.471,1.294,4.771,3.411,6.048
	l0.117,0.071c0.477,0.55,0.873,1.173,1.514,1.559c0,0,229.486,229.74,230.127,230.127l0.117,0.071
	c0.062,0.071,0.137,0.129,0.196,0.203C444.901,456.583,512,364.168,512,256.005z"/>
<path style="fill:#F4F6F9;" d="M393.802,87.233c-2.23-1.25-4.954-1.215-7.132,0.111L118.012,249.952
	c-2.116,1.277-3.411,3.577-3.411,6.048c0,2.471,1.295,4.771,3.411,6.048l268.657,162.608c1.122,0.684,2.389,1.022,3.66,1.022
	c1.195,0,2.393-0.304,3.473-0.911c2.223-1.25,3.597-3.604,3.597-6.159V93.392C397.398,90.837,396.025,88.482,393.802,87.233z
	 M383.259,406.063L135.325,256l247.934-150.064V406.063z"/>
<g>
</g>
<g>
</g>
<g>
</g>
<g>
</g>
<g>
</g>
<g>
</g>
<g>
</g>
<g>
</g>
<g>
</g>
<g>
</g>
<g>
</g>
<g>
</g>
<g>
</g>
<g>
</g>
<g>
</g>
</svg>
