<?xml version="1.0" encoding="utf-8"?>
<svg id="Layer_1" style="enable-background:new 0 0 512 512;" x="0px" y="0px" viewBox="0 0 512 512" xmlns="http://www.w3.org/2000/svg">
  <path style="fill:#4FC0E8;" d="M512,256.006C512,397.402,397.394,512.004,256.004,512C114.606,512.004,0,397.402,0,256.006&#10;&#9;C-0.007,114.61,114.606,0,256.004,0C397.394,0,512,114.614,512,256.006z"/>
  <path style="fill:#3DAED9;" d="M 398.999 324.394 C 398.999 344.014 396.718 363.089 392.539 381.444 C 392.149 381.957 281.922 492.536 280.8 493.167 C 278.571 494.417 275.846 494.383 273.668 493.057 L 5.012 330.447 C 2.896 329.169 1.601 326.87 1.601 324.399 C 1.601 321.928 2.895 319.628 5.012 318.351 L 5.129 318.28 C 5.606 317.73 6.002 317.107 6.643 316.721 C 6.643 316.721 236.129 86.981 236.77 86.594 L 236.887 86.523 C 236.949 86.452 237.024 86.394 237.083 86.32 C 331.9 123.816 398.999 216.231 398.999 324.394 Z" transform="matrix(-1, 0, 0, -1, 400.599988, 580.398727)"/>
  <path style="fill:#F4F6F9;" d="M 395.403 424.767 C 393.173 426.017 390.449 425.982 388.271 424.656 L 119.613 262.048 C 117.497 260.771 116.202 258.471 116.202 256 C 116.202 253.529 117.497 251.229 119.613 249.952 L 388.27 87.344 C 389.392 86.66 390.659 86.322 391.93 86.322 C 393.125 86.322 394.323 86.626 395.403 87.233 C 397.626 88.483 399 90.837 399 93.392 L 399 418.608 C 398.999 421.163 397.626 423.518 395.403 424.767 Z M 384.86 105.937 L 136.926 256 L 384.86 406.064 L 384.86 105.937 Z" transform="matrix(-1, 0, 0, -1, 515.20204, 512.000326)"/>
  <g/>
  <g/>
  <g/>
  <g/>
  <g/>
  <g/>
  <g/>
  <g/>
  <g/>
  <g/>
  <g/>
  <g/>
  <g/>
  <g/>
  <g/>
</svg>