<svg version="1.1" xmlns="http://www.w3.org/2000/svg" xmlns:xlink="http://www.w3.org/1999/xlink" style="" xml:space="preserve" width="512" height="512"><rect id="backgroundrect" width="100%" height="100%" x="0" y="0" fill="none" stroke="none"/>


















<g class="currentLayer" style=""><title>Layer 1</title><path style="fill: rgb(79, 192, 232);" d="M512,256.006C512,397.402,397.394,512.004,256.004,512C114.606,512.004,0,397.402,0,256.006  C-0.007,114.61,114.606,0,256.004,0C397.394,0,512,114.614,512,256.006z" id="svg_1" class=""/><g id="svg_4">
</g><g id="svg_5">
</g><g id="svg_6">
</g><g id="svg_7">
</g><g id="svg_8">
</g><g id="svg_9">
</g><g id="svg_10">
</g><g id="svg_11">
</g><g id="svg_12">
</g><g id="svg_13">
</g><g id="svg_14">
</g><g id="svg_15">
</g><g id="svg_16">
</g><g id="svg_17">
</g><g id="svg_18">
</g><g class="" transform="rotate(90.01, 224.457, 303.776)" id="svg_19"><path style="fill: rgb(61, 174, 217);" d="M431.77182864397764,268.4031958580017 c0,-20.29595375061035 -2.3798985481262207,-40.02812957763672 -6.740090370178223,-59.015499114990234 c-0.4069094657897949,-0.5306740403175354 -115.41309356689453,-114.91937255859375 -116.583740234375,-115.57209777832031 c-2.3256444931030273,-1.2930651903152466 -5.168793678283691,-1.2578938007354736 -7.441226482391357,0.11378974467515945 L20.702473632991314,262.1416754722595 c-2.207744598388672,1.322029948234558 -3.5588929653167725,3.700235366821289 -3.5588929653167725,6.256366729736328 c0,2.556131362915039 1.350104808807373,4.935371398925781 3.5588929653167725,6.256366729736328 l0.12207284569740295,0.07344610244035721 c0.497681587934494,0.5689486861228943 0.9108512997627258,1.2134124040603638 1.5796434879302979,1.612710952758789 c0,0 239.4359588623047,237.65505981445312 240.10476684570312,238.05538940429688 l0.12207284569740295,0.07344610244035721 c0.06468817591667175,0.07344610244035721 0.1429399847984314,0.13344432413578033 0.20449809730052948,0.20999379456043243 C361.7635888978839,475.8915686607361 431.77182864397764,380.29266119003296 431.77182864397764,268.4031958580017 z" id="svg_2" class="" opacity="1"/><path style="fill: rgb(244, 246, 249);" d="M308.4490442201495,93.81664800643921 c-2.3266875743865967,-1.2930651903152466 -5.168793678283691,-1.2568594217300415 -7.441226482391357,0.11482419073581696 L20.701428405940533,262.1416754722595 c-2.207744598388672,1.3209954500198364 -3.5588929653167725,3.700235366821289 -3.5588929653167725,6.256366729736328 c0,2.556131362915039 1.3511481285095215,4.935371398925781 3.5588929653167725,6.256366729736328 l280.3053283691406,168.210205078125 c1.1706472635269165,0.7075653076171875 2.492581367492676,1.0572102069854736 3.8186891078948975,1.0572102069854736 c1.2468124628067017,0 2.4967548847198486,-0.3144734501838684 3.6235814094543457,-0.9423859715461731 c2.3193843364715576,-1.2930651903152466 3.752957344055176,-3.728165864944458 3.752957344055176,-6.371191024780273 V100.18784093856812 C312.2009668275714,97.54482793807983 310.76841067522764,95.10869359970093 308.4490442201495,93.81664800643921 zM297.448922149837,423.63100957870483 L38.76508044451475,268.3980689048767 l258.683837890625,-155.23403930664062 V423.63100957870483 z" id="svg_3" class="" opacity="1"/></g></g></svg>